<svg xmlns="http://www.w3.org/2000/svg" version="1.1" xmlns:xlink="http://www.w3.org/1999/xlink" xmlns:svgjs="http://svgjs.dev/svgjs" width="100%" height="100%" viewBox="0 0 1000 600"><rect width="1000" height="600" x="0" y="0" fill="#FFFFFF00"/><g><rect width="333.3333333333333" height="333.3333333333333" rx="13.333333333333334" ry="13.333333333333334" y="316.7167869813926" fill="#ff5774" transform="matrix(0.4244560465193879,0,0,0.4244560465193879,0,94.8249643380646)" x="294.49456787109375"/><path d="M438.6566532764167 556.7672866333778L438.6566532764167 556.7672866333778L388.7989572311 556.7672866333778Q380.4436002180011 490.0769005470735 367.66661266877315 440.9815545941929L367.66661266877315 440.9815545941929Q373.8873894230512 428.3265430597547 378.27852595548273 417.83660578783486L378.27852595548273 417.83660578783486Q379.0408760479188 416.2204235918705 382.2122524324527 413.53695126649563Q385.35313481328916 410.8534789411208 387.60969108689983 410.8534789411208L387.60969108689983 410.8534789411208L421.70198722063924 410.8534789411208Q426.09312375307087 443.2381108678036 433.56415465894395 482.9413036818722Q441.00469156111967 522.6749904996384 448.0793004189261 549.6926777755714L448.0793004189261 549.6926777755714Q448.0793004189261 551.0954019456537 444.66397200481265 553.9313442895158Q441.2181495870018 556.7672866333778 438.6566532764167 556.7672866333778ZM352.99899689030383 534.3541939157584L352.99899689030383 537.8000163335693L353.3039369272783 549.6926777755714Q353.3039369272783 551.0954019456537 349.82762050576997 553.9313442895158Q346.35130408426164 556.7672866333778 343.8812897847689 556.7672866333778L343.8812897847689 556.7672866333778L309.6670176362397 556.7672866333778Q326.6216836920171 528.0419351503881 362.20818600693116 451.50198586981014L362.20818600693116 451.50198586981014Q363.1839941252493 454.27694020627735 363.1839941252493 459.27795681265775Q363.1839941252493 464.2484794153407 361.7202819477721 473.67112655785Q360.2870637739924 483.1242677040569 358.0305075003817 495.93174925698224Q355.77395122677103 508.73923080990767 354.70666109736055 516.6676717712423L354.70666109736055 516.6676717712423Q370.1366269682659 519.0157100559454 377.11975381497996 521.9126404072023L377.11975381497996 521.9126404072023Q377.11975381497996 528.3468751873625 374.95467955246164 531.4572635645014L374.95467955246164 531.4572635645014Q363.8243682028956 532.4330716828196 352.99899689030383 534.3541939157584L352.99899689030383 534.3541939157584ZM603.7511892943643 517.4300218636783L603.7511892943643 517.4300218636783L602.9888392019283 533.2869037863479Q602.9888392019283 538.3184143964257 605.1844074681441 540.6359586774313Q607.3799757343598 542.9230089547394 612.6554383740172 542.9230089547394L612.6554383740172 542.9230089547394Q611.5576542409093 549.5707017607816 609.118133945114 553.8703562821208L609.118133945114 553.8703562821208Q593.8711320963934 558.3834688293422 577.2519000812878 558.3834688293422Q560.6326680661822 558.3834688293422 555.8756034893813 554.7851763930441Q551.1185389125804 551.186883956746 551.1185389125804 545.240553235745Q551.1185389125804 539.2942225147439 552.5517570863602 529.7495993574447Q553.9849752601399 520.2049762001457 553.9849752601399 514.6245735235138L553.9849752601399 514.6245735235138Q553.9849752601399 504.7750103292403 542.8546639105739 502.73191208151167L542.8546639105739 502.73191208151167Q543.830472028892 497.4869434455518 546.4834503505695 494.37655506841276L546.4834503505695 494.37655506841276Q556.7904236003045 491.2661666912737 561.7304521992901 485.04538993699566Q566.6399867945781 478.82461318271766 566.6399867945781 473.2137165023884Q566.6399867945781 467.5723258183618 564.5054065357572 464.5229254486176Q562.3708262769363 461.4735250788735 559.3519199108896 461.4735250788735Q556.3635075485404 461.4735250788735 553.4665771972834 462.4188391934942L553.4665771972834 462.4188391934942Q554.4423853156015 455.98460441333407 557.095363637279 452.7827340251027L557.095363637279 452.7827340251027Q569.7503751717171 446.653439281917 581.7040246211142 446.653439281917Q593.6576740705112 446.653439281917 600.6408009172253 452.0203839326667Q607.593433760242 457.3873285834163 607.593433760242 465.6816975891204Q607.593433760242 474.0065605985219 603.9036593128515 479.64795128254855Q600.2138848654611 485.2588479628778 594.0845901222754 488.796152391781L594.0845901222754 488.796152391781Q582.100446669181 495.9927372643771 566.5485047834858 497.4869434455518L566.5485047834858 497.4869434455518Q584.7534249908583 497.4869434455518 594.2675541444601 502.73191208151167Q603.7511892943643 507.9768807174716 603.7511892943643 517.4300218636783ZM528.705446194961 549.4792197496893L528.705446194961 549.4792197496893Q528.705446194961 550.973425930864 525.2596237771502 553.8703562821208Q521.8442953630367 556.7672866333778 519.2523050487542 556.7672866333778L519.2523050487542 556.7672866333778L475.0969876948591 556.7672866333778Q479.82355826796254 536.610750189369 485.98334701484566 489.43652646942724Q492.14313576172884 442.26230274948546 494.49117404643187 415.4580734994345L494.49117404643187 415.4580734994345Q494.49117404643187 414.08584333304964 497.9369964642427 411.24990098918755Q501.35232487835617 408.38346464162805 503.8223391778489 408.38346464162805L503.8223391778489 408.38346464162805L548.9534646500622 408.38346464162805Q543.2815799623381 431.9858235034477 537.1827792228498 476.4155868906198Q531.053484479664 520.8453502777918 528.705446194961 549.4792197496893Z " fill="#ffffff" transform="matrix(0.4244560465193879,0,0,0.4244560465193879,0,94.8249643380646)"/><path d="M760.4194532676636 556.2784107325816L760.4194532676636 556.2784107325816L711.1612345951185 556.2784107325816Q725.325227876418 505.0053564977286 732.0914667050644 419.2695924956371L732.0914667050644 419.2695924956371Q732.0914667050644 417.88627255733604 735.5798387233887 415.1497048533058Q739.0682107417131 412.38306497670374 741.5040567200257 412.38306497670374L741.5040567200257 412.38306497670374L790.5517701845683 412.38306497670374Q782.4022114176211 446.7555582262269 776.9290760095605 485.6689495340861L776.9290760095605 485.6689495340861Q785.168851294223 486.39068167580837 797.7991637743628 488.4055172381164Q810.4294762545026 490.4203528004244 815.0906630031257 491.8938892564407L815.0906630031257 491.8938892564407Q815.0906630031257 497.90832377079295 812.8653222328153 500.5546749571079L812.8653222328153 500.5546749571079Q792.5666057468763 501.8177062051219 773.9519309249561 506.4788929537449L773.9519309249561 506.4788929537449Q771.7265901546458 524.5522686693735 769.6215380746225 549.301666695933L769.6215380746225 549.301666695933Q769.6215380746225 550.6849866342341 766.2534547465852 553.4816986834078Q762.8552992459762 556.2784107325816 760.4194532676636 556.2784107325816ZM822.6989226637812 476.46686472712713L822.6989226637812 476.46686472712713Q820.1728601677532 460.4985410915219 813.0758274408176 444.62043397363186Q805.9787947138819 428.77239902831366 798.791545469231 420.8333454693687L798.791545469231 420.8333454693687Q799.3328445755227 415.7812204773128 801.8589070715507 412.38306497670374L801.8589070715507 412.38306497670374L840.2610714456898 412.38306497670374Q839.5092671313957 422.6376758236744 837.0734211530831 439.92917505243713Q834.6375751747704 457.2206742811999 831.9010074707402 469.3698320001915L831.9010074707402 469.3698320001915Q831.4799970547356 471.1741623544971 828.2923467621288 473.8205135408121Q825.134768642094 476.46686472712713 822.6989226637812 476.46686472712713ZM968.6091039819671 556.2784107325816L968.6091039819671 556.2784107325816L919.4411018271373 556.2784107325816Q911.2013265424748 490.5105693181397 898.6010862349067 442.09437147760394L898.6010862349067 442.09437147760394Q904.7358094395461 429.614419860323 909.0662022898797 419.2695924956371L909.0662022898797 419.2695924956371Q909.8180066041738 417.67576734933374 912.945512551637 415.02941616301877Q916.0429463265284 412.38306497670374 918.2682870968387 412.38306497670374L918.2682870968387 412.38306497670374L951.8889760320678 412.38306497670374Q956.2193688824015 444.3197122479143 963.587051162483 483.4736809363475Q970.9246612699928 522.6577217973525 977.9014053066414 549.301666695933L977.9014053066414 549.301666695933Q977.9014053066414 550.6849866342341 974.5032498060323 553.4816986834078Q971.135166477995 556.2784107325816 968.6091039819671 556.2784107325816ZM884.1363712278896 534.1753638923371L884.1363712278896 537.5735193929461L884.4370929536071 549.301666695933Q884.4370929536071 550.6849866342341 881.0088652804264 553.4816986834078Q877.5806376072456 556.2784107325816 875.1447916289329 556.2784107325816L875.1447916289329 556.2784107325816L841.4038140034168 556.2784107325816Q858.123941953316 527.9504241699825 893.2181673445615 452.4692710148616L893.2181673445615 452.4692710148616Q894.1804768668578 455.20583871889187 894.1804768668578 460.1376750206607Q894.1804768668578 465.0394391498578 892.7370125834133 474.33174047453207Q891.3236204725406 483.6541139717781 889.0982797022302 496.28442645191785Q886.8729389319199 508.9147389320576 885.8204128919083 516.7335038007155L885.8204128919083 516.7335038007155Q901.0369322132194 519.0490610887412 907.9234597321528 521.9059174830585L907.9234597321528 521.9059174830585Q907.9234597321528 528.2511458957001 905.7883354795578 531.3185074980197L905.7883354795578 531.3185074980197Q894.8119924908649 532.2808170203161 884.1363712278896 534.1753638923371L884.1363712278896 534.1753638923371ZM1065.5317161807538 556.2784107325816L1032.0313159358116 556.2784107325816Q1020.3933851505401 485.75916605180134 1003.5830406829256 419.2695924956371L1003.5830406829256 419.2695924956371Q1003.5830406829256 417.88627255733604 1006.9811961835346 415.1497048533058Q1010.3492795115719 412.38306497670374 1012.9054141801715 412.38306497670374L1012.9054141801715 412.38306497670374L1063.2161588927283 412.38306497670374Q1067.1255413270574 448.34938337253027 1070.7342020356687 465.24994435786016Q1074.312790571708 482.1805775157618 1076.8689252403078 491.68338404843837L1076.8689252403078 491.68338404843837Q1082.3420606483685 512.2828222600949 1088.8075777512972 512.2828222600949L1088.8075777512972 512.2828222600949Q1090.6119081056027 512.2828222600949 1092.3861662873367 511.1400797023679L1092.3861662873367 511.1400797023679Q1085.6199274586904 524.4620521516582 1074.8540896779998 549.301666695933L1074.8540896779998 549.301666695933Q1074.1022853637057 550.8954918422364 1070.9747794162427 553.5719152011231Q1067.8773456413512 556.2784107325816 1065.5317161807538 556.2784107325816L1065.5317161807538 556.2784107325816ZM1099.78392073999 431.3285336969134L1099.78392073999 431.3285336969134L1099.4831990142725 419.2695924956371Q1099.4831990142725 417.88627255733604 1102.911426687453 415.1497048533058Q1106.339654360634 412.38306497670374 1108.7755003389466 412.38306497670374L1108.7755003389466 412.38306497670374L1142.6066944821782 412.38306497670374Q1129.8260211391796 433.9448127106566 1099.904209430277 496.2242821067743L1099.904209430277 496.2242821067743Q1099.152405115983 497.90832377079295 1096.0850435136633 500.52460278453617Q1093.0176819113437 503.11080962570765 1090.702124623318 503.11080962570765L1090.702124623318 503.11080962570765Q1099.78392073999 469.7908424161961 1099.78392073999 431.3285336969134ZM1364.5393280617766 556.2784107325816L1364.5393280617766 556.2784107325816L1317.897388402975 556.2784107325816Q1318.5289040269818 530.2659814580081 1318.5289040269818 503.32131483370995Q1318.5289040269818 476.3465760368401 1315.882552840667 442.09437147760394L1315.882552840667 442.09437147760394Q1319.4912135492782 434.6064005072354 1325.926658479635 419.2695924956371L1325.926658479635 419.2695924956371Q1326.6784627939292 417.5554786590467 1329.7458243962487 414.9692718178752Q1332.8131859985683 412.38306497670374 1335.1287432865938 412.38306497670374L1335.1287432865938 412.38306497670374L1367.4864009738092 412.38306497670374Q1366.7345966595153 426.33655305000104 1366.7345966595153 443.35740272561793L1366.7345966595153 443.35740272561793Q1366.7345966595153 496.64529252277896 1373.831629386451 549.301666695933L1373.831629386451 549.301666695933Q1373.831629386451 550.6849866342341 1370.433473885842 553.4816986834078Q1367.0653905578047 556.2784107325816 1364.5393280617766 556.2784107325816ZM1292.0052478186883 550.7752031519493L1292.0052478186883 550.7752031519493Q1291.2534435043942 552.3690282982527 1288.7273810083664 554.3237195154172Q1286.1712463397666 556.2784107325816 1284.6977098837503 556.2784107325816L1284.6977098837503 556.2784107325816L1267.8873654161357 556.2784107325816Q1263.4667560480868 529.9652597322905 1256.369723321151 500.88546885539733Q1249.2726905942154 471.80567797850415 1242.2959465575668 452.98049794858156L1242.2959465575668 452.98049794858156Q1242.7470291461432 450.5446519702689 1245.1227307793124 438.1248446981315Q1247.4984324124816 425.705037425994 1248.4306697622062 419.2695924956371L1248.4306697622062 419.2695924956371Q1248.7614636604953 417.7960560396208 1252.0393304708175 415.08956050816226Q1255.3171972811394 412.38306497670374 1257.6327545691652 412.38306497670374L1257.6327545691652 412.38306497670374L1288.396587110077 412.38306497670374Q1295.704125045015 454.66453961260015 1300.515672656497 469.5201928630503Q1305.3272202679786 484.37584611350036 1309.3268192200228 493.2772091947417L1309.3268192200228 493.2772091947417Q1299.1924970633393 523.6200313196489 1292.0052478186883 550.7752031519493ZM1239.9803892695413 479.8349480551644L1239.9803892695413 479.8349480551644Q1240.521688375833 506.2683877457426 1241.9350804867058 520.2218758190398Q1243.3785447701503 534.1753638923371 1248.1299480364887 549.301666695933L1248.1299480364887 549.301666695933Q1248.1299480364887 550.6849866342341 1244.7017203633077 553.4816986834078Q1241.243420517555 556.2784107325816 1238.7173580215272 556.2784107325816L1238.7173580215272 556.2784107325816L1204.9763803960109 556.2784107325816Q1215.441496450984 531.3185074980197 1221.365714447621 515.8313386235627Q1227.2899324442578 500.3441697491056 1230.7783044625821 486.7214755740977L1230.7783044625821 486.7214755740977Q1230.7783044625821 485.33815563579674 1234.1764599631913 482.6015879317664Q1237.5445432912286 479.8349480551644 1239.9803892695413 479.8349480551644ZM1459.6876820788295 558.3834628126049L1459.6876820788295 558.3834628126049Q1475.114706608143 545.4825007793193 1482.662821923655 520.7631749253316Q1490.241009411739 496.013776898772 1490.241009411739 468.67817203104096Q1490.241009411739 441.3726393358817 1484.6175131408195 419.2695924956371L1484.6175131408195 419.2695924956371Q1484.6175131408195 417.7960560396208 1488.0758129865721 414.9692718178752Q1491.5040406597527 412.17255976870143 1493.9398866380657 412.17255976870143L1493.9398866380657 412.17255976870143Q1509.246622477092 415.1497048533058 1520.0425324303544 424.98330528427175L1520.0425324303544 424.98330528427175Q1540.5517541242955 443.6881966239073 1540.5517541242955 476.8878751431318L1540.5517541242955 476.8878751431318Q1540.5517541242955 502.14850010341127 1527.8612972990122 522.4472165893502L1527.8612972990122 522.4472165893502Q1513.8175927079997 545.1817790536018 1489.1584111991556 553.7523482365536L1489.1584111991556 553.7523482365536Q1475.625933541863 558.3834628126049 1459.6876820788295 558.3834628126049ZM1480.7081307064905 409.6464972726735L1480.7081307064905 409.6464972726735Q1465.1608174868898 422.6376758236744 1457.5525578262345 447.2667851599469Q1449.9442981655789 471.92596666879115 1449.9442981655789 499.411932399381Q1449.9442981655789 526.8978981299708 1455.7782996445003 548.670151071926L1455.7782996445003 548.670151071926Q1455.7782996445003 550.1436875279423 1452.3199997987479 553.0005439222597Q1448.891772125567 555.857400316577 1446.3657096295392 555.857400316577L1446.3657096295392 555.857400316577Q1423.0898480589958 551.196213567954 1411.1511955480069 532.5815387460337L1411.1511955480069 532.5815387460337Q1399.7237699707375 514.7186682384075 1399.7237699707375 491.2623736324337L1399.7237699707375 491.2623736324337Q1399.7237699707375 466.0017486721542 1412.4142267960206 445.49252697821294L1412.4142267960206 445.49252697821294Q1426.3677148693178 422.96846972196374 1451.1171128958774 414.39790053901174L1451.1171128958774 414.39790053901174Q1464.6495905531701 409.6464972726735 1480.7081307064905 409.6464972726735ZM1624.6936929800838 556.2784107325816L1591.1932927351418 556.2784107325816Q1579.55536194987 485.75916605180134 1562.7450174822554 419.2695924956371L1562.7450174822554 419.2695924956371Q1562.7450174822554 417.88627255733604 1566.1431729828644 415.1497048533058Q1569.5112563109017 412.38306497670374 1572.0673909795014 412.38306497670374L1572.0673909795014 412.38306497670374L1622.378135692058 412.38306497670374Q1626.287518126387 448.34938337253027 1629.8961788349984 465.24994435786016Q1633.474767371038 482.1805775157618 1636.0309020396378 491.68338404843837L1636.0309020396378 491.68338404843837Q1641.5040374476982 512.2828222600949 1647.969554550627 512.2828222600949L1647.969554550627 512.2828222600949Q1649.7738849049326 512.2828222600949 1651.5481430866666 511.1400797023679L1651.5481430866666 511.1400797023679Q1644.7819042580204 524.4620521516582 1634.0160664773298 549.301666695933L1634.0160664773298 549.301666695933Q1633.2642621630357 550.8954918422364 1630.1668283881445 553.5719152011231Q1627.0393224406812 556.2784107325816 1624.6936929800838 556.2784107325816L1624.6936929800838 556.2784107325816ZM1658.9759697118916 431.3285336969134L1658.9759697118916 431.3285336969134L1658.6451758136022 419.2695924956371Q1658.6451758136022 417.88627255733604 1662.073403486783 415.1497048533058Q1665.5317033325355 412.38306497670374 1667.9374771382766 412.38306497670374L1667.9374771382766 412.38306497670374L1701.768671281508 412.38306497670374Q1688.9879979385096 433.9448127106566 1659.066186229607 496.2242821067743L1659.066186229607 496.2242821067743Q1658.3143819153129 497.90832377079295 1655.2470203129933 500.52460278453617Q1652.2097308832454 503.11080962570765 1649.8641014226482 503.11080962570765L1649.8641014226482 503.11080962570765Q1658.9759697118916 469.7908424161961 1658.9759697118916 431.3285336969134ZM1750.2149412946155 556.2784107325816L1750.2149412946155 556.2784107325816L1701.0469391397858 556.2784107325816Q1715.63194283709 493.15692050445466 1721.6463773514424 419.2695924956371L1721.6463773514424 419.2695924956371Q1721.6463773514424 417.88627255733604 1725.1046771971946 415.1497048533058Q1728.5329048703757 412.38306497670374 1730.9687508486882 412.38306497670374L1730.9687508486882 412.38306497670374L1780.1066808309465 412.38306497670374Q1765.4314606159269 474.9632560985391 1759.3869539290026 549.301666695933L1759.3869539290026 549.301666695933Q1759.3869539290026 550.6849866342341 1756.0188706009653 553.4816986834078Q1752.6207151003564 556.2784107325816 1750.2149412946155 556.2784107325816ZM1859.406999902681 483.11281486548637L1859.406999902681 483.11281486548637Q1884.5774083452452 485.8794547420884 1896.2153391305164 489.36782676041275L1896.2153391305164 489.36782676041275Q1896.2153391305164 495.17175606676267 1893.779493152204 497.90832377079295L1893.779493152204 497.90832377079295Q1876.4278495782978 498.9909219833763 1856.5501435083634 503.41153135142525L1856.5501435083634 503.41153135142525Q1853.6932871140461 525.6047947093851 1851.7987402420254 549.301666695933L1851.7987402420254 549.301666695933Q1851.7987402420254 550.6849866342341 1848.430656913988 553.4816986834078Q1845.0325014133791 556.2784107325816 1842.5966554350662 556.2784107325816L1842.5966554350662 556.2784107325816L1793.3384367625213 556.2784107325816Q1807.5024300438208 505.0053564977286 1814.268668872467 419.2695924956371L1814.268668872467 419.2695924956371Q1814.268668872467 417.88627255733604 1817.7570408907914 415.1497048533058Q1821.2454129091157 412.38306497670374 1823.6812588874286 412.38306497670374L1823.6812588874286 412.38306497670374L1872.7289723519712 412.38306497670374Q1864.6997022753108 447.2667851599469 1859.406999902681 483.11281486548637ZM1904.876124831184 476.46686472712713L1904.876124831184 476.46686472712713Q1902.350062335156 460.4985410915219 1895.2530296082205 444.62043397363186Q1888.1559968812849 428.77239902831366 1880.968747636634 420.8333454693687L1880.968747636634 420.8333454693687Q1881.5100467429256 415.7812204773128 1884.0361092389535 412.38306497670374L1884.0361092389535 412.38306497670374L1922.4082014405208 412.38306497670374Q1921.6864692987983 422.6376758236744 1919.2506233204858 439.92917505243713Q1916.8147773421729 457.2206742811999 1914.0782096381427 469.3698320001915L1914.0782096381427 469.3698320001915Q1913.6571992221384 471.1741623544971 1910.4695489295314 473.8205135408121Q1907.3119708094964 476.46686472712713 1904.876124831184 476.46686472712713ZM1900.004432874559 512.8241213663865L1900.004432874559 512.8241213663865Q1901.1772476048573 511.35058491037023 1905.2971352471886 508.5839450337682Q1909.41702288952 505.8473773297379 1911.7325801775455 505.8473773297379L1911.7325801775455 505.8473773297379Q1908.1539916415059 537.2427254946567 1904.9663413488993 548.670151071926L1904.9663413488993 548.670151071926Q1904.0341039991745 550.7752031519493 1901.1772476048573 553.5418430285514Q1898.32039121054 556.2784107325816 1896.5160608562342 556.2784107325816L1896.5160608562342 556.2784107325816L1857.7229582386622 556.2784107325816Q1883.7353875132358 538.8365506409601 1900.004432874559 512.8241213663865ZM2010.1588010049204 408.3834660246595L2010.1588010049204 408.3834660246595Q2001.8288092025423 415.45042657902343 2001.8288092025423 425.5546765631352Q2001.8288092025423 435.658926547247 2007.3620889557465 445.73310435878705Q2012.9254408815223 455.83735434289883 2020.3231953341756 462.93438706983454Q2027.720949786829 470.00134762419844 2031.7806930840165 474.18137961167326Q2035.8705085537758 478.3614115991481 2040.9827778909757 484.22548525064155Q2046.1251194007468 490.08955890213497 2049.0721923127794 494.750745650758L2049.0721923127794 494.750745650758Q2056.3797302477174 506.0578825377403 2056.3797302477174 514.5683073755488Q2056.3797302477174 523.0787322133572 2052.83121388425 530.3862701482951Q2049.2826975207818 537.6637359106614 2042.7871082452812 543.648098252442Q2036.291518969781 549.6324605942224 2026.187268985669 553.5418430285514Q2016.0830190015572 557.4512254628803 2003.9338612825659 557.9624523966003L2003.9338612825659 557.9624523966003Q2007.3320167831748 553.1208326125467 2007.3320167831748 547.7679858947732Q2007.3320167831748 542.4151391769997 2005.1066760128642 536.8818594237956Q2002.881335242554 531.3185074980197 1998.340437184218 524.9732790853782L1998.340437184218 524.9732790853782Q1991.03289924928 514.7186682384075 1982.0112474777516 504.88506780744154Q1972.9595235336515 495.0514673764756 1969.411007170184 490.84136321642904Q1965.8624908067159 486.60118688381067 1961.4418814386668 480.1657419534538L1961.4418814386668 480.1657419534538Q1952.7510235654277 467.68579033617283 1952.7510235654277 455.1156222011766Q1952.7510235654277 442.5153818936086 1960.4795719163703 431.74954411291804Q1968.2081202673135 420.95363415965573 1981.3496596811729 414.72869443730116Q1994.5212712676043 408.47368254237483 2010.1588010049204 408.3834660246595ZM2045.3733150864527 472.22668839450876L2045.3733150864527 472.22668839450876Q2045.3733150864527 461.97207754753816 2041.674437860126 451.0859510765606L2041.674437860126 451.0859510765606Q2034.3969720977602 429.82492506832534 2017.376122422143 416.83374651732447L2017.376122422143 416.83374651732447Q2017.5866276301454 414.93919964530346 2020.9547109581827 412.2928484589885Q2024.3528664587916 409.6464972726735 2026.54813505653 409.6464972726735L2026.54813505653 409.6464972726735Q2034.2766834074728 409.6464972726735 2044.591438599587 412.71385887499315Q2054.9061937917013 415.7812204773128 2060.9206283060535 418.6380768716301L2060.9206283060535 418.6380768716301Q2061.461927412345 421.79565499166506 2061.461927412345 429.6745642054665Q2061.461927412345 437.553473419268 2059.958318783757 449.3417650673984Q2058.484782327741 461.13005671552884 2056.3797302477174 467.98651206189044L2056.3797302477174 467.98651206189044Q2055.7482146237107 469.5803372081938 2051.8689043619534 470.90351280135127Q2048.0196662727676 472.22668839450876 2045.3733150864527 472.22668839450876ZM1994.7317764756067 548.7603675896413L1994.7317764756067 548.7603675896413Q1993.468745227593 555.9476168342923 1990.8223940412777 558.3834628126049L1990.8223940412777 558.3834628126049Q1979.7257623622977 558.3834628126049 1964.5994595587017 555.5266064182877Q1949.4731567551062 552.6697500239703 1942.6167014087446 548.2491406559213L1942.6167014087446 548.2491406559213Q1942.4964127184576 545.903511195324 1942.4964127184576 541.5731183449903L1942.4964127184576 541.5731183449903Q1942.4964127184576 520.9736801333338 1947.3681046750826 502.4792940017007L1947.3681046750826 502.4792940017007Q1947.7891150910873 500.7651801651103 1950.9767653836943 498.1789733239388Q1954.1343435037288 495.59276648276733 1956.6904781723283 495.59276648276733L1956.6904781723283 495.59276648276733Q1959.0962519780696 507.23069726803897 1965.4114082181395 518.9588445710259Q1971.6964922856378 530.6869918740128 1979.6656180171544 538.7764062958165Q1987.6648159212427 546.8658207176204 1994.7317764756067 548.7603675896413Z " fill="#ff5774" transform="matrix(0.4244560465193879,0,0,0.4244560465193879,0,94.8249643380646)"/></g></svg>